<?xml version="1.0" encoding="UTF-8" standalone="no"?>
<!-- Created with Inkscape (http://www.inkscape.org/) -->

<svg
   width="16.000999mm"
   height="3.0680001mm"
   viewBox="0 0 16.001 3.068"
   version="1.1"
   id="svg1"
   xmlns="http://www.w3.org/2000/svg"
   xmlns:svg="http://www.w3.org/2000/svg">
  <defs
     id="defs1" />
  <g
     id="layer1">
    <path
       style="fill:#465786;font-weight:600;font-size:4.23333px;font-family:Bahnschrift;-inkscape-font-specification:'Bahnschrift Semi-Bold';stroke-width:0.264583"
       d="m 1.0748297,3.067794 q -0.51262997,0 -0.79374997,-0.291455 Q -3.9274658e-5,2.482817 -3.9274658e-5,1.949517 V 0.03128904 H 0.49398673 V 1.963986 q 0,0.293522 0.150895,0.454752 0.152962,0.161231 0.42994797,0.161231 0.279052,0 0.432014,-0.161231 0.152962,-0.16123 0.152962,-0.454752 V 0.03128904 h 0.494027 V 1.949517 q 0,0.5333 -0.283187,0.826822 -0.28112,0.291455 -0.795816,0.291455 z m 2.040183,-0.593245 -0.0041,-0.684196 1.265038,-1.75906396 h 0.615983 z M 2.7739487,3.036788 V 0.03128904 h 0.494026 V 3.036788 Z m 1.750796,0 -0.913638,-1.562694 0.409277,-0.307991 1.097606,1.870685 z m 0.923974,-1.697053 h 1.430402 v 0.471289 h -1.430402 z m 2.319237,1.697053 V 2.569633 h 0.886766 q 0.264584,0 0.38654,-0.111621 0.124023,-0.111621 0.124023,-0.299723 v -0.0062 q 0,-0.198437 -0.113688,-0.312125 Q 8.9399757,1.726275 8.7063987,1.726275 H 7.7679557 V 1.263254 h 0.938443 q 0.204638,0 0.312125,-0.09922 0.107487,-0.09922 0.107487,-0.28731996 v 0 q 0,-0.186035 -0.113688,-0.28112 -0.113688,-0.09715 -0.334863,-0.09715 h -0.909504 v -0.467155 h 0.957046 q 0.44235,0 0.669726,0.217041 0.229443,0.217041 0.229443,0.597379 v 0 q 0,0.24391196 -0.142626,0.42374596 -0.142627,0.177767 -0.425814,0.227376 0.289388,0.04134 0.448551,0.237712 0.159164,0.19637 0.159164,0.47749 v 0.0062 q 0,0.378271 -0.239779,0.599446 -0.239778,0.219108 -0.663525,0.219108 z m -0.248047,0 V 0.03128904 h 0.491959 V 3.036788 Z M 10.736247,0.03128904 V 3.036788 H 10.231885 V 0.03128904 Z M 11.087646,3.036788 12.216259,0.03128904 h 0.359667 L 13.704539,3.036788 H 13.173305 L 12.396093,0.79816704 11.61888,3.036788 Z M 11.61888,2.46628 V 1.992925 h 1.581297 V 2.46628 Z m 3.257679,0.601514 q -0.217041,0 -0.417545,-0.04134 -0.198437,-0.04341 -0.37207,-0.126091 -0.173633,-0.08268 -0.320394,-0.204638 v 0 l 0.262516,-0.394808 v 0 q 0.173633,0.146761 0.388607,0.223242 0.217041,0.07441 0.458886,0.07441 0.30179,0 0.467155,-0.107487 0.167431,-0.107487 0.167431,-0.303857 v -0.0021 q 0,-0.150895 -0.08475,-0.23151 -0.08268,-0.08062 -0.219108,-0.117822 -0.136426,-0.03927 -0.297656,-0.06615 -0.171566,-0.02687 -0.349332,-0.06615 -0.1757,-0.04134 -0.324528,-0.12609 -0.146761,-0.08682 -0.237712,-0.24598 -0.08888,-0.16123 -0.08888,-0.42788096 v -0.0021 q 0,-0.429947 0.283187,-0.665591 0.285253,-0.2356450009 0.804084,-0.2356450009 0.241846,0 0.483691,0.0806200009 0.241846,0.07855 0.460954,0.233578 v 0 l -0.239779,0.40721 v 0 q -0.173632,-0.126091 -0.353466,-0.188102 -0.179834,-0.06408 -0.3514,-0.06408 -0.285253,0 -0.44235,0.10542 -0.155029,0.103352 -0.155029,0.293522 v 0.0021 q 0,0.15709596 0.09095,0.23977796 0.09302,0.08061 0.239778,0.119889 0.148828,0.03927 0.320394,0.07441 0.169498,0.03307 0.33693,0.08062 0.169498,0.04754 0.307991,0.136426 0.138493,0.08888 0.221175,0.24598 0.08475,0.155029 0.08475,0.405143 v 0.0041 q 0,0.425813 -0.295589,0.65939 -0.293522,0.231511 -0.828889,0.231511 z"
       id="text1"
       aria-label="UK-BIAS" />
  </g>
</svg>
